<?xml version="1.0" encoding="utf-8"?>
<!-- Generator: Adobe Illustrator 26.5.3, SVG Export Plug-In . SVG Version: 6.00 Build 0)  -->
<svg version="1.1" id="Layer_1" xmlns="http://www.w3.org/2000/svg" xmlns:xlink="http://www.w3.org/1999/xlink" x="0px" y="0px"
     viewBox="0 50 360 360" style="enable-background:new 0 50 360 420;" xml:space="preserve">
<style type="text/css">
    .st0{fill:#BEF799;}
</style>

<path class="st0" d="M326.4,285.6c12.4,12.8,19.2,29.9,19.2,47.7c-0.1,17.8-7,34.8-19.5,47.5c-12.5,12.7-29.6,19.9-47.4,20.1
    s-35-6.8-47.8-19.3c-12.9-13.1-30.2-20.9-48.5-21.9c-10.4-0.6-20.8,1-30.6,4.7s-18.6,9.5-25.9,17c-9.2,9.1-20.7,15.3-33.3,18.1
    c-12.6,2.7-25.7,1.8-37.8-2.7S32.2,384.3,24.4,374c-7.8-10.3-12.4-22.6-13.4-35.5c-1-12.9,1.7-25.7,7.8-37.1
    c6.1-11.4,15.3-20.8,26.6-27.1s24.1-9.2,37-8.5s25.3,5.2,35.7,12.8c5.6,4.1,10.5,9.4,15.9,13.5c14.1,10.7,31.6,15.9,49.3,14.7
    s34.3-8.7,46.9-21.3c11-11.2,25.6-18.1,41.2-19.6s31.3,2.4,44.3,11.2C319.5,279.7,322.8,282.8,326.4,285.6z"/>
<path class="st0" d="M126.9,380.5C114,393.1,96.7,400,78.8,400s-35.2-7.1-48-19.7c-12.8-12.7-20.1-29.9-20.2-47.9
    c-0.2-18,6.8-35.4,19.4-48.3c13.1-13.8,21.2-29.9,22.1-49c0.7-10.5-1-21-4.7-30.9c-3.8-9.8-9.6-18.7-17.1-26.1
    c-9.2-9.3-15.5-21-18.2-33.7c-2.7-12.7-1.8-26,2.8-38.2s12.5-22.9,22.9-30.7C48.1,67.6,60.6,63,73.6,62c13-1,26,1.8,37.4,7.9
    s20.9,15.5,27.3,26.9c6.3,11.4,9.3,24.3,8.5,37.3c-0.8,13-5.3,25.5-12.9,36.1c-4.2,5.6-9.4,10.5-13.6,16.1
    c-10.8,14.3-16.1,32-14.9,49.8c1.2,17.8,8.8,34.7,21.5,47.3c11.3,11.1,18.3,25.9,19.8,41.6c1.6,15.8-2.5,31.6-11.3,44.7
    C132.8,373.6,129.7,377,126.9,380.5z"/>
<path class="st0" d="M276.4,196.6c38.2,0,69.2-31,69.2-69.2s-31-69.2-69.2-69.2s-69.2,31-69.2,69.2
    C207.3,165.6,238.3,196.6,276.4,196.6z"/>
</svg>