<?xml version="1.0" encoding="utf-8"?>
<!-- Generator: Adobe Illustrator 26.5.3, SVG Export Plug-In . SVG Version: 6.00 Build 0)  -->
<svg version="1.1" id="Layer_1" xmlns="http://www.w3.org/2000/svg" xmlns:xlink="http://www.w3.org/1999/xlink" x="0px" y="0px"
     viewBox="0 0 2546.8 587.3" style="enable-background:new 0 0 2546.8 587.3;" xml:space="preserve">
<style type="text/css">
    .st0{fill:#BEF799;}
</style>
<path class="st0" d="M2333.5,550.7c0,0.2-0.1,0.3-0.1,0.5c-0.6,4.2-2.4,7.8-5.6,10.7c-8.8,7.9-23,5.8-28.9-4.5
    c-4.6-7.9-4.7-16.3-1.1-24.6c3.5-8,11.3-12.4,19.8-11.4c7.9,0.9,14.2,6.8,15.6,14.7c0.1,0.3,0.1,0.6,0.2,0.9c3.9-0.3,7.7-0.7,11.5-1
    c-0.1-0.6-0.1-1-0.2-1.5c-1-7.3-4.4-13.2-10.4-17.6c-7-5.1-15-6.8-23.5-5.6c-11.4,1.6-19.6,7.7-24.3,18.3
    c-3.3,7.4-3.7,15.2-1.9,23.1c1.7,7.3,5.3,13.5,11.3,18c8.6,6.4,18.2,7.8,28.5,5.2c7-1.8,12.6-5.7,16.6-11.8
    c2.5-3.8,3.8-8.1,4.1-12.8c-3.9-0.3-7.7-0.6-11.5-0.9C2333.5,550.6,2333.5,550.7,2333.5,550.7L2333.5,550.7z"/>
<path class="st0" d="M2277.1,529.6c-2.3-5.9-5.9-10.8-11.2-14.3c-6.2-4.1-13.1-5.3-20.4-4.4c-10.4,1.4-18.2,6.7-23.1,16.1
    c-4.8,9.2-5.2,18.8-2.2,28.6c2.6,8.7,8.1,15.2,16.4,19c6.8,3.1,13.9,3.5,21,1.8c7.2-1.7,13.1-5.5,17.3-11.8c1.5-2.2,2.6-4.7,3.2-7.4
    c-3.4-0.5-6.7-1.1-10-1.6c-3.6,10.7-15.4,14.4-24.4,11.5c-9.9-3.2-13.5-13.5-13.2-19.8h48.6c0.1-0.3,0.1-0.4,0.1-0.5
    C2279.9,540.9,2279.2,535.1,2277.1,529.6L2277.1,529.6z M2230.5,538.4c0.4-4.5,1.8-8.6,4.7-12.1c3.1-3.8,7.1-6,12-6.6
    c11.9-1.3,20.4,7,20.6,18.7H2230.5L2230.5,538.4z"/>
<path class="st0" d="M2526.3,515.2c-6.2-4.1-13.1-5.3-20.4-4.4c-10.4,1.4-18.2,6.7-23.1,16.1c-4.8,9.2-5.2,18.8-2.2,28.6
    c2.6,8.7,8.1,15.2,16.4,19c6.8,3.1,13.9,3.5,21,1.8c7.2-1.7,13.1-5.5,17.3-11.8c1.5-2.2,2.6-4.7,3.2-7.4c-3.4-0.5-6.7-1.1-10-1.6
    c-3.6,10.7-15.4,14.4-24.4,11.5c-9.9-3.2-13.5-13.5-13.2-19.8h48.6c0.1-0.3,0.1-0.4,0.1-0.5c0.6-5.9-0.1-11.7-2.2-17.2
    C2535.2,523.7,2531.6,518.7,2526.3,515.2L2526.3,515.2z M2490.9,538.4c0.4-4.5,1.8-8.6,4.7-12.1c3.1-3.8,7.1-6,12-6.6
    c11.9-1.3,20.4,7,20.6,18.7H2490.9L2490.9,538.4z"/>
<path class="st0" d="M2395.7,514.7c-6.7-3.7-14-4.6-21.5-3.3c-9.6,1.7-16.9,6.7-21.6,15.3c-4.6,8.5-5.2,17.5-2.9,26.7
    c1.7,7.2,5.5,13.2,11.6,17.6c7.3,5.3,15.5,6.9,24.3,5.5c8.5-1.3,15.3-5.4,20.2-12.5c4.1-6,5.8-12.7,5.9-21.3c-0.2-1.5-0.4-4.5-1-7.4
    C2408.7,526.3,2403.9,519.2,2395.7,514.7L2395.7,514.7L2395.7,514.7z M2397.3,555.6c-2.8,6.5-7.8,10.5-14.9,11.4
    c-8.9,1.1-16.4-3.5-19.9-11.8c-1.5-3.6-2.1-7.4-2.1-11.3c0-5.1,1-9.9,3.8-14.2c4.3-6.5,10.4-9.3,18.1-8.5
    c7.6,0.8,12.6,5.2,15.3,12.1C2400.6,540.7,2400.5,548.2,2397.3,555.6L2397.3,555.6z"/>
<path class="st0" d="M2470.9,526.4c-2-6.1-5.6-10.8-11.5-13.4c-3.5-1.6-7.2-2-11-1.8c-7.6,0.4-13.3,3.9-16.8,10.7
    c-0.9,1.7-1.5,3.6-2.2,5.4c0.1-4.8,0.2-9.6,0.4-14.4h-11.8v62.3h11.8c0-0.3,0-0.5,0-0.7c0-10.8,0-21.6,0-32.5
    c0-3.8,0.5-7.6,1.9-11.2c1.4-3.7,3.6-6.8,7.3-8.6c3.4-1.6,6.9-1.9,10.5-1.2c5.2,1,8.4,4.2,10,9.2c1.1,3.5,1.2,7,1.2,10.6
    c0,11,0,22.1,0,33.1v1.2h11.8c0-0.3,0-0.7,0-0.9c0-12.3,0-24.6,0-37C2472.5,533.6,2472.1,529.9,2470.9,526.4L2470.9,526.4
    L2470.9,526.4z"/>
<path class="st0" d="M2133.2,489.5h-12v85.7h12V489.5z"/>
<path class="st0" d="M2171.6,575.2h-11.9l-26.7-85.7h12.4L2171.6,575.2z"/>
<path class="st0" d="M2199.1,575.2h12v-85.7h-12V575.2z"/>
<path class="st0" d="M2161.1,575.2h11.5l26.7-85.7h-12.4L2161.1,575.2z"/>
<path class="st0" d="M2012.6,548.4c0-10.1-6.7-15.8-15.3-17.3c7.5-1.3,13.3-7,13.3-15.1c0-11.2-7.2-18.8-24.7-18.8h-28.8v70.6h30
    C2003.6,567.8,2012.6,560.6,2012.6,548.4z M1986.9,535.2c10.5,0,16,4.7,16,12.4c0,7.6-5.5,12.2-16,12.2h-20.4v-24.7H1986.9z
     M1966.5,505.1h19.7c10.2,0,14.6,4.6,14.6,11.3c0,6.8-4.4,11.2-14.6,11.2h-19.7V505.1z M2038.6,586.6l28.2-67.8h-9.2l-15,37.7h-0.4
    l-15.6-37.7h-9.8l20.6,48.8l-8,18.9H2038.6z"/>
<path class="st0" d="M711.2,404.6L787,65.2c3.4-15.1,11.8-28.6,23.8-38.3c12.1-9.7,27.1-14.9,42.5-15h0.3c18,0,35.3,7.2,48.1,19.9
    c12.8,12.8,19.9,30.1,19.9,48.1v312.2c0,8.5-3.4,16.7-9.4,22.7c-6,6-14.2,9.4-22.7,9.4c-8.5,0-16.6-3.4-22.6-9.4
    c-6-6-9.4-14.2-9.4-22.7V37.6l-2.3-0.2l-69.5,325.5c-3.7,17.5-13.3,33.1-27.2,44.3c-13.9,11.2-31.2,17.3-49,17.3
    c-17.8,0-35-6.1-48.9-17.3c-13.8-11.2-23.4-26.8-27.1-44.2L564,35.2l-1.9,0.2v357.1c0,8.5-3.4,16.6-9.3,22.6s-14.1,9.4-22.6,9.4
    c-8.5,0-16.6-3.4-22.6-9.4c-6-6-9.4-14.1-9.4-22.6V80.2c0-18,7.2-35.3,19.9-48.1s30-19.9,48.1-19.9c15.5,0,30.4,5.3,42.5,14.9
    s20.5,23.1,23.9,38.2l76.2,339.3L711.2,404.6L711.2,404.6z"/>
<path class="st0" d="M1339.3,138.7c-8.9-24.2-22.4-46.4-39.8-65.3c-17.2-18.5-38.1-33.3-61.3-43.2c-49.5-20.4-105-20.4-154.6,0
    c-23.1,10-43.9,24.7-61,43.2c-17.4,19-31,41.1-40.1,65.3c-19,53.1-19,111.1,0,164.1c9,24.2,22.6,46.4,40.1,65.4
    c17.1,18.5,37.9,33.2,61,43.2c49.5,20.4,105,20.4,154.5,0c23.2-10,44.1-24.7,61.3-43.2c17.4-19,31-41.1,39.8-65.3
    c18.6-53.1,18.6-110.9,0-164L1339.3,138.7L1339.3,138.7z M1294.7,220.7c0,29.8-5.9,56.3-17.5,78.7c-10.7,21.3-27,39.3-47.1,52.1
    c-19.6,12.4-42.9,18.6-69.2,18.6c-24.1,0.6-48-5.7-68.6-18.2c-20.7-12.5-37.3-30.7-47.9-52.4c-11.5-22.4-17.3-48.9-17.3-78.9
    s5.8-56.4,17.3-78.9c10.7-21.7,27.3-39.9,48-52.3c20.7-12.5,44.5-18.8,68.7-18.1c26.3,0,49.5,6.3,69.2,18.6
    c20.1,12.8,36.3,30.9,47,52.2C1288.9,164.4,1294.8,190.8,1294.7,220.7L1294.7,220.7L1294.7,220.7z"/>
<path class="st0" d="M1652.2,263.7c-6.9-13.9-16.9-26.1-29.3-35.5c-12.4-9.2-26-16.7-40.5-22.3c-14.4-5.6-29.6-10.7-45.2-15.1
    c-15.2-5.3-29.8-10.9-43.3-17c-11.3-4.8-21.5-11.9-29.9-20.8c-6.6-7.3-9.8-16.7-9.8-28.8c-0.4-10.1,2.8-20,8.9-28
    c7.1-8.5,16.3-14.9,26.7-18.6c13.2-4.8,27.1-7.2,41.1-7c10.8,0,21.5,1.4,31.9,4.4c9.8,2.8,19.2,6.9,27.8,12.3
    c7.7,4.7,14.5,10.7,20.2,17.6l0.8,0.9c2.3,2.3,5,4.2,8.1,5.4c3,1.3,6.3,1.9,9.6,1.8c7.6-0.1,14.8-3.1,20.2-8.4
    c2.8-2.5,5.1-5.5,6.7-8.9c1.6-3.4,2.4-7.1,2.5-10.9c0-7.9-3.6-15.5-11-23.7c-13.7-16-31.5-28.1-51.5-35
    c-20.9-7.6-42.9-11.6-65.2-11.5c-26,0-49.3,4.6-69.3,13.8c-19.2,8.4-35.8,21.9-47.7,39.2c-11.4,17-17.4,37.1-17.1,57.6
    c-0.4,16.5,3,32.8,9.8,47.8c6.4,13.3,15.7,25,27.3,34.2c11.7,9.1,24.6,16.6,38.4,22.1c13.7,5.7,28.3,11,43.2,15.8h0.4
    c16.2,4.4,31.9,10.2,47.2,17.1c11.8,5.2,22.5,12.8,31.2,22.3c6.9,7.9,10.5,18.4,10.7,31.9c0.2,10-3.1,19.7-9.2,27.5
    c-7.1,8.8-16.4,15.5-27,19.4c-13.2,5-27.3,7.5-41.5,7.2c-18,0.1-35.9-3.6-52.4-10.8c-16.6-7.4-31.4-18.2-43.7-31.5l-0.3-0.3
    c-2.6-2.8-5.8-5-9.3-6.5c-3.5-1.5-7.2-2.3-11.1-2.4c-3.8,0-7.6,0.9-11.1,2.4s-6.6,3.9-9.2,6.7c-5.3,5.4-8.4,12.6-8.4,20.2
    c-0.1,4.8,1.2,9.5,3.5,13.6c1.8,3.1,4,6,6.5,8.5c17.7,17.7,38.4,32,61.2,42.3c20.8,9.1,45.2,13.7,72.7,13.7h3.3
    c26-0.4,49.2-5.3,68.8-14.6c18.9-8.7,35.2-22.1,47.3-38.9c11.7-16.5,18-36.2,17.8-56.5C1662.9,295.7,1659.3,278,1652.2,263.7z"/>
<path class="st0" d="M2034.2,383.7l-0.1-0.4L1892.5,37l-0.2-0.3c-2.2-5-5.7-9.4-10.1-12.6c-5-3.6-10.9-5.4-17.1-5.3
    c-5.5-0.1-10.9,1.4-15.6,4.1c-5.3,3.3-9.2,8.4-11.2,14.3l-141.9,347.5l-0.4,1.2c-1.1,3.5-1.4,7.2-1,10.9c0.2,6.4,2.7,12.4,7,17.1
    c4.8,5.3,11.8,7.9,20.7,7.9c5.6,0.1,11.1-1.7,15.6-4.9c4.6-3.4,8.2-8.1,10.1-13.5l35.3-90.9h163.5l33.6,90.6l0.3,0.7
    c2.2,5,5.6,9.4,10.1,12.6c4.8,3.5,10.6,5.4,16.6,5.3c6.9,0,13.7-2.4,19-6.8c3-2.5,5.4-5.8,7-9.4s2.3-7.5,2.2-11.5
    C2035.9,390.5,2035.3,387,2034.2,383.7z M1867.6,97.4l58.9,159.1h-120.8L1867.6,97.4z"/>
<path class="st0" d="M2535.1,351.4l-0.4-0.5c-4.4-5.7-10.9-9.5-18-10.5c-6.6-0.9-13.4,0.5-19.1,4l-0.2,0.2
    c-12.8,8.1-26.6,14.5-41.1,19.1c-14.9,4.7-30.4,7.1-46.1,7c-19.1,0.1-38-3.5-55.7-10.5c-17-6.8-32.4-17-45.3-30
    c-13.2-13.5-23.6-29.6-30.4-47.3c-14.6-39.6-14.6-83.1-0.3-122.8c6.7-17.6,16.9-33.6,29.9-47.1c12.9-13.2,28.4-23.7,45.4-30.7
    c17.9-7.3,37.1-11.1,56.4-10.9c15.7-0.1,31.4,2.3,46.4,7c14.4,4.5,28,11.1,40.5,19.5l0.8,0.6l0.9,0.4c5.3,2.5,11.2,3.7,17.1,3.5
    c3.7-0.2,7.3-1.2,10.6-3c3.2-1.8,6-4.4,8-7.5c2.5-3.1,4.2-6.7,5.3-10.5c1-3.8,1.2-7.8,0.6-11.7c-0.6-3.9-2.1-7.6-4.3-10.9
    s-5.1-6.1-8.4-8.2c-16.9-11.3-35.4-20-54.9-25.8c-20.3-6.1-41.4-9.2-62.7-9.1c-26.9-0.2-53.6,5.1-78.4,15.5
    c-24,10.1-45.8,24.8-64.1,43.3c-18.4,18.7-33,40.7-43.1,64.9c-10.7,25.9-16.1,53.6-15.8,81.6c-0.4,28.7,5.1,57.2,16,83.8
    c10,24.1,24.7,46,43.3,64.4s40.6,32.9,64.7,42.6c24.6,10,50.9,15,77.4,14.9c14.6,0,29.1-1.5,43.4-4.6c14-2.9,27.8-7.2,41-12.8
    c11.5-4.8,22.6-10.6,33.2-17.2c3.4-1.9,6.4-4.6,8.6-7.9c2.2-3.2,3.6-7,4.1-10.9c0.6-3.8,0.4-7.7-0.5-11.5
    C2539.1,358,2537.4,354.5,2535.1,351.4z"/>
<path class="st0" d="M2090.5,23.2l0.2,24.5v339.6c0,8.1,3.2,15.9,9,21.7c5.8,5.8,13.6,9,21.7,9c8.1,0,15.9-3.2,21.7-9
    c5.8-5.8,9-13.6,9-21.7v-299C2152,52.4,2126.4,23.2,2090.5,23.2z"/>
<path class="st0" d="M326.4,285.6c12.4,12.8,19.2,29.9,19.2,47.7c-0.1,17.8-7,34.8-19.5,47.5c-12.5,12.7-29.6,19.9-47.4,20.1
    s-35-6.8-47.8-19.3c-12.9-13.1-30.2-20.9-48.5-21.9c-10.4-0.6-20.8,1-30.6,4.7s-18.6,9.5-25.9,17c-9.2,9.1-20.7,15.3-33.3,18.1
    c-12.6,2.7-25.7,1.8-37.8-2.7S32.2,384.3,24.4,374c-7.8-10.3-12.4-22.6-13.4-35.5c-1-12.9,1.7-25.7,7.8-37.1
    c6.1-11.4,15.3-20.8,26.6-27.1s24.1-9.2,37-8.5s25.3,5.2,35.7,12.8c5.6,4.1,10.5,9.4,15.9,13.5c14.1,10.7,31.6,15.9,49.3,14.7
    s34.3-8.7,46.9-21.3c11-11.2,25.6-18.1,41.2-19.6s31.3,2.4,44.3,11.2C319.5,279.7,322.8,282.8,326.4,285.6z"/>
<path class="st0" d="M126.9,380.5C114,393.1,96.7,400,78.8,400s-35.2-7.1-48-19.7c-12.8-12.7-20.1-29.9-20.2-47.9
    c-0.2-18,6.8-35.4,19.4-48.3c13.1-13.8,21.2-29.9,22.1-49c0.7-10.5-1-21-4.7-30.9c-3.8-9.8-9.6-18.7-17.1-26.1
    c-9.2-9.3-15.5-21-18.2-33.7c-2.7-12.7-1.8-26,2.8-38.2s12.5-22.9,22.9-30.7C48.1,67.6,60.6,63,73.6,62c13-1,26,1.8,37.4,7.9
    s20.9,15.5,27.3,26.9c6.3,11.4,9.3,24.3,8.5,37.3c-0.8,13-5.3,25.5-12.9,36.1c-4.2,5.6-9.4,10.5-13.6,16.1
    c-10.8,14.3-16.1,32-14.9,49.8c1.2,17.8,8.8,34.7,21.5,47.3c11.3,11.1,18.3,25.9,19.8,41.6c1.6,15.8-2.5,31.6-11.3,44.7
    C132.8,373.6,129.7,377,126.9,380.5z"/>
<path class="st0" d="M276.4,196.6c38.2,0,69.2-31,69.2-69.2s-31-69.2-69.2-69.2s-69.2,31-69.2,69.2
    C207.3,165.6,238.3,196.6,276.4,196.6z"/>
</svg>